<svg width="195" height="50" viewBox="0 0 195 50" fill="none" xmlns="http://www.w3.org/2000/svg">
<path d="M193.755 48.2329C194.178 48.5872 194.235 49.2178 193.88 49.6415C193.526 50.0652 192.895 50.1214 192.472 49.7671L193.113 49L193.755 48.2329ZM163.424 24.1725L163.424 23.1725L163.787 23.1725L164.065 23.4053L163.424 24.1725ZM192.431 49.7332C192.008 49.3789 191.951 48.7483 192.306 48.3246C192.66 47.9009 193.291 47.8447 193.714 48.199L193.073 48.9661L192.431 49.7332ZM188.847 44.1289C189.271 44.4832 189.327 45.1138 188.973 45.5375C188.618 45.9612 187.988 46.0174 187.564 45.6631L188.206 44.896L188.847 44.1289ZM187.483 45.5953C187.059 45.241 187.003 44.6103 187.357 44.1867C187.712 43.763 188.342 43.7067 188.766 44.061L188.124 44.8282L187.483 45.5953ZM183.899 39.9909C184.323 40.3452 184.379 40.9759 184.024 41.3996C183.67 41.8232 183.04 41.8795 182.616 41.5252L183.257 40.7581L183.899 39.9909ZM182.535 41.4574C182.111 41.1031 182.055 40.4724 182.409 40.0487C182.763 39.6251 183.394 39.5688 183.818 39.9231L183.176 40.6902L182.535 41.4574ZM178.951 35.853C179.374 36.2073 179.431 36.838 179.076 37.2616C178.722 37.6853 178.091 37.7416 177.668 37.3873L178.309 36.6201L178.951 35.853ZM177.586 37.3194C177.163 36.9651 177.107 36.3345 177.461 35.9108C177.815 35.4871 178.446 35.4309 178.869 35.7852L178.228 36.5523L177.586 37.3194ZM174.002 31.7151C174.426 32.0694 174.482 32.7 174.128 33.1237C173.774 33.5474 173.143 33.6036 172.719 33.2493L173.361 32.4822L174.002 31.7151ZM172.638 33.1815C172.215 32.8272 172.158 32.1966 172.513 31.7729C172.867 31.3492 173.498 31.293 173.921 31.6473L173.28 32.4144L172.638 33.1815ZM169.054 27.5772C169.478 27.9315 169.534 28.5621 169.18 28.9858C168.825 29.4095 168.195 29.4657 167.771 29.1114L168.413 28.3443L169.054 27.5772ZM167.69 29.0436C167.266 28.6893 167.21 28.0586 167.564 27.635C167.919 27.2113 168.549 27.155 168.973 27.5093L168.332 28.2765L167.69 29.0436ZM164.106 23.4392C164.53 23.7935 164.586 24.4242 164.232 24.8479C163.877 25.2715 163.247 25.3278 162.823 24.9735L163.464 24.2064L164.106 23.4392ZM163.374 25.1725C162.822 25.1725 162.374 24.7247 162.374 24.1725C162.374 23.6202 162.822 23.1725 163.374 23.1725L163.374 24.1725L163.374 25.1725ZM157.381 23.1725C157.933 23.1725 158.381 23.6202 158.381 24.1725C158.381 24.7247 157.933 25.1725 157.381 25.1725L157.381 24.1725L157.381 23.1725ZM157.281 25.1725C156.728 25.1725 156.281 24.7247 156.281 24.1725C156.281 23.6202 156.728 23.1725 157.281 23.1725L157.281 24.1725L157.281 25.1725ZM151.287 23.1725C151.84 23.1725 152.287 23.6202 152.287 24.1725C152.287 24.7247 151.84 25.1725 151.287 25.1725L151.287 24.1725L151.287 23.1725ZM151.188 25.1725C150.635 25.1725 150.188 24.7247 150.188 24.1725C150.188 23.6202 150.635 23.1725 151.188 23.1725L151.188 24.1725L151.188 25.1725ZM145.194 23.1725C145.747 23.1725 146.194 23.6202 146.194 24.1725C146.194 24.7247 145.747 25.1725 145.194 25.1725L145.194 24.1725L145.194 23.1725ZM145.094 25.1725C144.542 25.1725 144.094 24.7247 144.094 24.1725C144.094 23.6202 144.542 23.1725 145.094 23.1725L145.094 24.1725L145.094 25.1725ZM139.101 23.1725C139.653 23.1725 140.101 23.6202 140.101 24.1725C140.101 24.7247 139.653 25.1725 139.101 25.1725L139.101 24.1725L139.101 23.1725ZM139.001 25.1725C138.449 25.1725 138.001 24.7247 138.001 24.1725C138.001 23.6202 138.449 23.1725 139.001 23.1725L139.001 24.1725L139.001 25.1725ZM133.008 23.1725C133.56 23.1725 134.008 23.6202 134.008 24.1725C134.008 24.7247 133.56 25.1725 133.008 25.1725L133.008 24.1725L133.008 23.1725ZM132.908 25.1725C132.356 25.1725 131.908 24.7247 131.908 24.1725C131.908 23.6202 132.356 23.1725 132.908 23.1725L132.908 24.1725L132.908 25.1725ZM126.915 23.1725C127.467 23.1725 127.915 23.6202 127.915 24.1725C127.915 24.7247 127.467 25.1725 126.915 25.1725L126.915 24.1725L126.915 23.1725ZM126.815 25.1725C126.263 25.1725 125.815 24.7247 125.815 24.1725C125.815 23.6202 126.263 23.1725 126.815 23.1725L126.815 24.1725L126.815 25.1725ZM120.822 23.1725C121.374 23.1725 121.822 23.6202 121.822 24.1725C121.822 24.7247 121.374 25.1725 120.822 25.1725L120.822 24.1725L120.822 23.1725ZM120.722 25.1725C120.169 25.1725 119.722 24.7247 119.722 24.1725C119.722 23.6202 120.169 23.1725 120.722 23.1725L120.722 24.1725L120.722 25.1725ZM114.728 23.1725C115.281 23.1725 115.728 23.6202 115.728 24.1725C115.728 24.7247 115.281 25.1725 114.728 25.1725L114.728 24.1725L114.728 23.1725ZM114.628 25.1725C114.076 25.1725 113.628 24.7247 113.628 24.1725C113.628 23.6202 114.076 23.1725 114.628 23.1725L114.628 24.1725L114.628 25.1725ZM108.635 23.1725C109.187 23.1725 109.635 23.6202 109.635 24.1725C109.635 24.7247 109.187 25.1725 108.635 25.1725L108.635 24.1725L108.635 23.1725ZM108.535 25.1725C107.983 25.1725 107.535 24.7247 107.535 24.1725C107.535 23.6202 107.983 23.1725 108.535 23.1725L108.535 24.1725L108.535 25.1725ZM102.542 23.1725C103.094 23.1725 103.542 23.6202 103.542 24.1725C103.542 24.7247 103.094 25.1725 102.542 25.1725L102.542 24.1725L102.542 23.1725ZM102.442 25.1725C101.89 25.1725 101.442 24.7247 101.442 24.1725C101.442 23.6202 101.89 23.1725 102.442 23.1725L102.442 24.1725L102.442 25.1725ZM96.4488 23.1725C97.0011 23.1725 97.4488 23.6202 97.4488 24.1725C97.4488 24.7247 97.0011 25.1725 96.4488 25.1725L96.4488 24.1725L96.4488 23.1725ZM96.3489 25.1725C95.7966 25.1725 95.3489 24.7247 95.3489 24.1725C95.3489 23.6202 95.7966 23.1725 96.3489 23.1725L96.3489 24.1725L96.3489 25.1725ZM90.3556 23.1725C90.9079 23.1725 91.3556 23.6202 91.3556 24.1725C91.3556 24.7247 90.9079 25.1725 90.3556 25.1725L90.3556 24.1725L90.3556 23.1725ZM90.2557 25.1725C89.7034 25.1725 89.2557 24.7247 89.2557 24.1725C89.2557 23.6202 89.7034 23.1725 90.2557 23.1725L90.2557 24.1725L90.2557 25.1725ZM84.2624 23.1725C84.8147 23.1725 85.2624 23.6202 85.2624 24.1725C85.2624 24.7247 84.8147 25.1725 84.2624 25.1725L84.2624 24.1725L84.2624 23.1725ZM84.1625 25.1725C83.6102 25.1725 83.1625 24.7247 83.1625 24.1725C83.1625 23.6202 83.6102 23.1725 84.1625 23.1725L84.1625 24.1725L84.1625 25.1725ZM78.1692 23.1725C78.7215 23.1725 79.1692 23.6202 79.1692 24.1725C79.1692 24.7247 78.7215 25.1725 78.1692 25.1725L78.1692 24.1725L78.1692 23.1725ZM78.0693 25.1725C77.517 25.1725 77.0693 24.7247 77.0693 24.1725C77.0693 23.6202 77.517 23.1725 78.0693 23.1725L78.0693 24.1725L78.0693 25.1725ZM72.076 23.1725C72.6283 23.1725 73.076 23.6202 73.076 24.1725C73.076 24.7247 72.6283 25.1725 72.076 25.1725L72.076 24.1725L72.076 23.1725ZM71.9761 25.1725C71.4238 25.1725 70.9761 24.7247 70.9761 24.1725C70.9761 23.6202 71.4238 23.1725 71.9761 23.1725L71.9761 24.1725L71.9761 25.1725ZM65.9828 23.1725C66.5351 23.1725 66.9828 23.6202 66.9828 24.1725C66.9828 24.7247 66.5351 25.1725 65.9828 25.1725L65.9828 24.1725L65.9828 23.1725ZM65.8829 25.1725C65.3307 25.1725 64.8829 24.7247 64.8829 24.1725C64.8829 23.6202 65.3307 23.1725 65.8829 23.1725L65.8829 24.1725L65.8829 25.1725ZM59.8897 23.1725C60.4419 23.1725 60.8897 23.6202 60.8897 24.1725C60.8897 24.7247 60.4419 25.1725 59.8897 25.1725L59.8897 24.1725L59.8897 23.1725ZM59.7898 25.1725C59.2375 25.1725 58.7898 24.7247 58.7898 24.1725C58.7898 23.6202 59.2375 23.1725 59.7898 23.1725L59.7898 24.1725L59.7898 25.1725ZM53.7965 23.1725C54.3488 23.1725 54.7965 23.6202 54.7965 24.1725C54.7965 24.7247 54.3488 25.1725 53.7965 25.1725L53.7965 24.1725L53.7965 23.1725ZM53.6966 25.1725C53.1443 25.1725 52.6966 24.7247 52.6966 24.1725C52.6966 23.6202 53.1443 23.1725 53.6966 23.1725L53.6966 24.1725L53.6966 25.1725ZM47.7033 23.1725C48.2556 23.1725 48.7033 23.6202 48.7033 24.1725C48.7033 24.7247 48.2556 25.1725 47.7033 25.1725L47.7033 24.1725L47.7033 23.1725ZM47.6034 25.1725C47.0511 25.1725 46.6034 24.7247 46.6034 24.1725C46.6034 23.6202 47.0511 23.1725 47.6034 23.1725L47.6034 24.1725L47.6034 25.1725ZM41.6101 23.1725C42.1624 23.1725 42.6101 23.6202 42.6101 24.1725C42.6101 24.7247 42.1624 25.1725 41.6101 25.1725L41.6101 24.1725L41.6101 23.1725ZM41.5102 25.1725C40.9579 25.1725 40.5102 24.7247 40.5102 24.1725C40.5102 23.6202 40.9579 23.1725 41.5102 23.1725L41.5102 24.1725L41.5102 25.1725ZM35.5169 23.1725C36.0692 23.1725 36.5169 23.6202 36.5169 24.1725C36.5169 24.7247 36.0692 25.1725 35.5169 25.1725L35.5169 24.1725L35.5169 23.1725ZM35.417 25.1725C34.8647 25.1725 34.417 24.7247 34.417 24.1725C34.417 23.6202 34.8647 23.1725 35.417 23.1725L35.417 24.1725L35.417 25.1725ZM29.4237 23.1725C29.976 23.1725 30.4237 23.6202 30.4237 24.1725C30.4237 24.7247 29.976 25.1725 29.4237 25.1725L29.4237 24.1725L29.4237 23.1725ZM29.3238 25.1725C28.7715 25.1725 28.3238 24.7247 28.3238 24.1725C28.3238 23.6202 28.7715 23.1725 29.3238 23.1725L29.3238 24.1725L29.3238 25.1725ZM23.3305 23.1725C23.8828 23.1725 24.3305 23.6202 24.3305 24.1725C24.3305 24.7247 23.8828 25.1725 23.3305 25.1725L23.3305 24.1725L23.3305 23.1725ZM23.2307 25.1725C22.6784 25.1725 22.2307 24.7247 22.2307 24.1725C22.2307 23.6202 22.6784 23.1725 23.2307 23.1725L23.2307 24.1725L23.2307 25.1725ZM17.2374 23.1725C17.7896 23.1725 18.2374 23.6202 18.2374 24.1725C18.2374 24.7247 17.7896 25.1725 17.2374 25.1725L17.2374 24.1725L17.2374 23.1725ZM17.1375 25.1725C16.5852 25.1725 16.1375 24.7247 16.1375 24.1725C16.1375 23.6202 16.5852 23.1725 17.1375 23.1725L17.1375 24.1725L17.1375 25.1725ZM11.1442 23.1725C11.6964 23.1725 12.1442 23.6202 12.1442 24.1725C12.1442 24.7247 11.6964 25.1725 11.1442 25.1725L11.1442 24.1725L11.1442 23.1725ZM11.0443 25.1725C10.492 25.1725 10.0443 24.7247 10.0443 24.1725C10.0443 23.6202 10.492 23.1725 11.0443 23.1725L11.0443 24.1725L11.0443 25.1725ZM5.05098 23.1725C5.60327 23.1725 6.05098 23.6202 6.05098 24.1725C6.05098 24.7247 5.60327 25.1725 5.05098 25.1725L5.05098 24.1725L5.05098 23.1725ZM4.93668 25.172C4.38443 25.165 3.94243 24.7117 3.94942 24.1595C3.95642 23.6072 4.40977 23.1652 4.96202 23.1722L4.94934 24.1721L4.93668 25.172ZM2.00131 20.2115C2.00832 20.7637 1.56631 21.2171 1.01407 21.2241C0.461822 21.2311 0.00846829 20.7891 0.00147976 20.2369L1.00139 20.2242L2.00131 20.2115ZM0.00106777 20.1173C0.00106776 19.5651 0.448776 19.1173 1.00107 19.1173C1.55336 19.1173 2.00107 19.5651 2.00107 20.1173L1.00107 20.1173L0.00106777 20.1173ZM2.00107 13.5035C2.00107 14.0557 1.55336 14.5035 1.00107 14.5035C0.448776 14.5035 0.0010677 14.0557 0.00106769 13.5035L1.00107 13.5035L2.00107 13.5035ZM0.00106769 13.3932C0.00106768 12.8409 0.448776 12.3932 1.00107 12.3932C1.55336 12.3932 2.00107 12.8409 2.00107 13.3932L1.00107 13.3932L0.00106769 13.3932ZM2.00107 6.77936C2.00107 7.33164 1.55336 7.77936 1.00107 7.77936C0.448776 7.77936 0.00106762 7.33164 0.00106761 6.77936L1.00107 6.77936L2.00107 6.77936ZM0.00106761 6.66912C0.0010676 6.11684 0.448776 5.66912 1.00107 5.66912C1.55336 5.66912 2.00107 6.11684 2.00107 6.66912L1.00107 6.66912L0.00106761 6.66912ZM2.00107 0.0552505C2.00107 0.607535 1.55336 1.05525 1.00107 1.05525C0.448776 1.05525 0.00106754 0.607535 0.00106753 0.0552506L1.00107 0.0552506L2.00107 0.0552505ZM193.113 49L192.472 49.7671L192.431 49.7332L193.073 48.9661L193.714 48.199L193.755 48.2329L193.113 49ZM188.206 44.896L187.564 45.6631L187.483 45.5953L188.124 44.8282L188.766 44.061L188.847 44.1289L188.206 44.896ZM183.257 40.7581L182.616 41.5252L182.535 41.4574L183.176 40.6902L183.818 39.9231L183.899 39.9909L183.257 40.7581ZM178.309 36.6201L177.668 37.3873L177.586 37.3194L178.228 36.5523L178.869 35.7852L178.951 35.853L178.309 36.6201ZM173.361 32.4822L172.719 33.2493L172.638 33.1815L173.28 32.4144L173.921 31.6473L174.002 31.7151L173.361 32.4822ZM168.413 28.3443L167.771 29.1114L167.69 29.0436L168.332 28.2765L168.973 27.5093L169.054 27.5772L168.413 28.3443ZM163.464 24.2064L162.823 24.9735L162.782 24.9396L163.424 24.1725L164.065 23.4053L164.106 23.4392L163.464 24.2064ZM163.424 24.1725L163.424 25.1725L163.374 25.1725L163.374 24.1725L163.374 23.1725L163.424 23.1725L163.424 24.1725ZM157.381 24.1725L157.381 25.1725L157.281 25.1725L157.281 24.1725L157.281 23.1725L157.381 23.1725L157.381 24.1725ZM151.287 24.1725L151.287 25.1725L151.188 25.1725L151.188 24.1725L151.188 23.1725L151.287 23.1725L151.287 24.1725ZM145.194 24.1725L145.194 25.1725L145.094 25.1725L145.094 24.1725L145.094 23.1725L145.194 23.1725L145.194 24.1725ZM139.101 24.1725L139.101 25.1725L139.001 25.1725L139.001 24.1725L139.001 23.1725L139.101 23.1725L139.101 24.1725ZM133.008 24.1725L133.008 25.1725L132.908 25.1725L132.908 24.1725L132.908 23.1725L133.008 23.1725L133.008 24.1725ZM126.915 24.1725L126.915 25.1725L126.815 25.1725L126.815 24.1725L126.815 23.1725L126.915 23.1725L126.915 24.1725ZM120.822 24.1725L120.822 25.1725L120.722 25.1725L120.722 24.1725L120.722 23.1725L120.822 23.1725L120.822 24.1725ZM114.728 24.1725L114.728 25.1725L114.628 25.1725L114.628 24.1725L114.628 23.1725L114.728 23.1725L114.728 24.1725ZM108.635 24.1725L108.635 25.1725L108.535 25.1725L108.535 24.1725L108.535 23.1725L108.635 23.1725L108.635 24.1725ZM102.542 24.1725L102.542 25.1725L102.442 25.1725L102.442 24.1725L102.442 23.1725L102.542 23.1725L102.542 24.1725ZM96.4488 24.1725L96.4488 25.1725L96.3489 25.1725L96.3489 24.1725L96.3489 23.1725L96.4488 23.1725L96.4488 24.1725ZM90.3556 24.1725L90.3556 25.1725L90.2557 25.1725L90.2557 24.1725L90.2557 23.1725L90.3556 23.1725L90.3556 24.1725ZM84.2624 24.1725L84.2624 25.1725L84.1625 25.1725L84.1625 24.1725L84.1625 23.1725L84.2624 23.1725L84.2624 24.1725ZM78.1692 24.1725L78.1692 25.1725L78.0693 25.1725L78.0693 24.1725L78.0693 23.1725L78.1692 23.1725L78.1692 24.1725ZM72.076 24.1725L72.076 25.1725L71.9761 25.1725L71.9761 24.1725L71.9761 23.1725L72.076 23.1725L72.076 24.1725ZM65.9828 24.1725L65.9828 25.1725L65.8829 25.1725L65.8829 24.1725L65.8829 23.1725L65.9828 23.1725L65.9828 24.1725ZM59.8897 24.1725L59.8897 25.1725L59.7898 25.1725L59.7898 24.1725L59.7898 23.1725L59.8897 23.1725L59.8897 24.1725ZM53.7965 24.1725L53.7965 25.1725L53.6966 25.1725L53.6966 24.1725L53.6966 23.1725L53.7965 23.1725L53.7965 24.1725ZM47.7033 24.1725L47.7033 25.1725L47.6034 25.1725L47.6034 24.1725L47.6034 23.1725L47.7033 23.1725L47.7033 24.1725ZM41.6101 24.1725L41.6101 25.1725L41.5102 25.1725L41.5102 24.1725L41.5102 23.1725L41.6101 23.1725L41.6101 24.1725ZM35.5169 24.1725L35.5169 25.1725L35.417 25.1725L35.417 24.1725L35.417 23.1725L35.5169 23.1725L35.5169 24.1725ZM29.4237 24.1725L29.4237 25.1725L29.3238 25.1725L29.3238 24.1725L29.3238 23.1725L29.4237 23.1725L29.4237 24.1725ZM23.3305 24.1725L23.3305 25.1725L23.2307 25.1725L23.2307 24.1725L23.2307 23.1725L23.3305 23.1725L23.3305 24.1725ZM17.2374 24.1725L17.2374 25.1725L17.1375 25.1725L17.1375 24.1725L17.1375 23.1725L17.2374 23.1725L17.2374 24.1725ZM11.1442 24.1725L11.1442 25.1725L11.0443 25.1725L11.0443 24.1725L11.0443 23.1725L11.1442 23.1725L11.1442 24.1725ZM5.05098 24.1725L5.05098 25.1725L5.00107 25.1725L5.00107 24.1725L5.00107 23.1725L5.05098 23.1725L5.05098 24.1725ZM5.00107 24.1725L5.00107 25.1725C4.97957 25.1725 4.95811 25.1723 4.93668 25.172L4.94934 24.1721L4.96202 23.1722C4.97501 23.1724 4.98802 23.1725 5.00107 23.1725L5.00107 24.1725ZM1.00139 20.2242L0.00147976 20.2369C0.0012051 20.2154 0.00106777 20.1939 0.00106777 20.1725L1.00107 20.1725L2.00107 20.1725C2.00107 20.1855 2.00114 20.1985 2.00131 20.2115L1.00139 20.2242ZM1.00107 20.1725L0.00106777 20.1725L0.00106777 20.1173L1.00107 20.1173L2.00107 20.1173L2.00107 20.1725L1.00107 20.1725ZM1.00107 13.5035L0.00106769 13.5035L0.00106769 13.3932L1.00107 13.3932L2.00107 13.3932L2.00107 13.5035L1.00107 13.5035ZM1.00107 6.77936L0.00106761 6.77936L0.00106761 6.66912L1.00107 6.66912L2.00107 6.66912L2.00107 6.77936L1.00107 6.77936ZM1.00107 0.0552506L0.00106753 0.0552506L0.00106753 0.000135817L1.00107 0.000135805L2.00107 0.000135793L2.00107 0.0552505L1.00107 0.0552506Z" fill="#575757"/>
</svg>
